# xmcd CD database file generated by LOLA_Freedb v0.9beta0
# 
# Track frame offsets:
#      150
#      13276
#      25025
#      37981
#      49386
#      61842
#      71705
#      81756
#      95073
#      106720
#      120131
#      131778
# 
# Disc length: 1898 seconds
# 
# Revision: 0 
# Processed by: cddbd v1.5.2PL0 Copyright (c) Steve Scherf et al.
# Submitted via: LOLA_Freedb v0.9beta0
# 
DISCID=9907680c
DTITLE=THE SONS OF THE PIONEERS - tumbleweed trails
DYEAR=1981
DGENRE=
TTITLE0=THE SONS OF THE PIONEERS - TUMBLEWEED TRAILS
TTITLE1=THE SONS OF THE PIONEERS - I'LL BE AROUND SOMEWHERE
TTITLE2=THE SONS OF THE PIONEERS - HOME IN SAN ANTONE
TTITLE3=THE SONS OF THE PIONEERS - THERE'S A LONG, LONG TRAIL
TTITLE4=THE SONS OF THE PIONEERS - SALT RIVER VALLEY
TTITLE5=THE SONS OF THE PIONEERS - MONTANA
TTITLE6=THE SONS OF THE PIONEERS - RIVER OF NO RETURN
TTITLE7=THE SONS OF THE PIONEERS - THERE'S A NEW MOON OVER MY SHOULDER
TTITLE8=THE SONS OF THE PIONEERS - I KNEW IT ALL THE TIME
TTITLE9=THE SONS OF THE PIONEERS - HE'S GONE UP THE TRAIL
TTITLE10=THE SONS OF THE PIONEERS - LONELY ROSE OF MEXICO
TTITLE11=THE SONS OF THE PIONEERS - CIELITO LINDO
EXTD=
EXTT0=
EXTT1=
EXTT2=
EXTT3=
EXTT4=
EXTT5=
EXTT6=
EXTT7=
EXTT8=
EXTT9=
EXTT10=
EXTT11=
PLAYORDER=
